# xmcd CD database file
#
# Track frame offsets:
#	150
#	25455
#	42862
#	71645
#	93232
#	115777
#	142545
#	163967
#	178495
#	197365
#
# Disc length: 2988 seconds
#
# Revision: 0
# Processed by: cddbd v1.5.2PL0 Copyright (c) Steve Scherf et al.
# Submitted via: CDex 1.51
#
DISCID=840baa0a
DTITLE=Beat Kaestli - Happy, Sad and Satisfied
DYEAR=2005
DGENRE=Jazz
TTITLE0=Summertime
TTITLE1=You'd Be So Nice To Come Home
TTITLE2=Blue - 'Round Midnight
TTITLE3=Les Feuilles Mortes
TTITLE4=Lazy Afternoon
TTITLE5=My Funny Valentine
TTITLE6=Thy Hand, Belinda - When I Am Laid In Earth
TTITLE7=So In Love
TTITLE8=Tenderly
TTITLE9=I (Who Have Nothing)
EXTD=YEAR: 2005
EXTT0=
EXTT1=
EXTT2=
EXTT3=
EXTT4=
EXTT5=
EXTT6=
EXTT7=
EXTT8=
EXTT9=
PLAYORDER=
